<svg xmlns="http://www.w3.org/2000/svg" x="0px" y="0px" width="100" height="100" viewBox="0 0 100 100"
    style=" fill:#000000;">
    <path fill="#fefdef" d="M77,24c0,0-2-1.518-2-5c0-3.5,2-5,2-5H28c-2.761,0-5,2.239-5,5s2.239,5,5,5H77z"></path>
    <path fill="#a3a3cd" d="M71,86H28c-2.761,0-5-2.239-5-5V19c0,2.761,2.239,5,5,5h49v56C77,83.314,74.314,86,71,86z">
    </path>
    <path fill="#666aad" d="M31,24h-3c-2.761,0-5-2.239-5-5v62c0,2.761,2.239,5,5,5h3V24z"></path>
    <polygon fill="#fcba7f" points="59.5,86.5 59.5,92.5 62.5,90.5 65.5,92.5 65.5,86.5"></polygon>
    <path fill="#1f212b"
        d="M77,25H28c-3.309,0-6-2.691-6-6s2.691-6,6-6h49c0.431,0,0.813,0.275,0.949,0.684	S77.944,14.542,77.6,14.8C77.543,14.845,76,16.092,76,19c0,2.896,1.547,4.157,1.613,4.21c0.333,0.265,0.467,0.714,0.327,1.116	C77.8,24.728,77.425,25,77,25z M28,15c-2.206,0-4,1.794-4,4s1.794,4,4,4h46.96C74.45,22.062,74,20.741,74,19	c0-1.744,0.448-3.063,0.957-4H28z">
    </path>
    <path fill="#1f212b"
        d="M71,87H28c-3.309,0-6-2.691-6-6V19c0-0.553,0.448-1,1-1s1,0.447,1,1c0,2.206,1.794,4,4,4h49	c0.552,0,1,0.447,1,1v56C78,83.859,74.86,87,71,87z M24,23.469V81c0,2.206,1.794,4,4,4h43c2.757,0,5-2.243,5-5V25H28	C26.465,25,25.063,24.42,24,23.469z">
    </path>
    <path fill="#1f212b"
        d="M71,87H28c-3.309,0-6-2.691-6-6V19c0-0.553,0.448-1,1-1s1,0.447,1,1c0,2.206,1.794,4,4,4h49	c0.552,0,1,0.447,1,1v56C78,83.859,74.86,87,71,87z M24,23.469V81c0,2.206,1.794,4,4,4h43c2.757,0,5-2.243,5-5V25H28	C26.465,25,25.063,24.42,24,23.469z">
    </path>
    <path fill="#1f212b"
        d="M30.5,74c-0.276,0-0.5-0.224-0.5-0.5v-49c0-0.276,0.224-0.5,0.5-0.5s0.5,0.224,0.5,0.5v49	C31,73.776,30.776,74,30.5,74z">
    </path>
    <path fill="#1f212b"
        d="M30.5,82c-0.276,0-0.5-0.224-0.5-0.5v-5c0-0.276,0.224-0.5,0.5-0.5s0.5,0.224,0.5,0.5v5	C31,81.776,30.776,82,30.5,82z">
    </path>
    <path fill="#1f212b"
        d="M74.5,18h-46c-0.276,0-0.5-0.224-0.5-0.5s0.224-0.5,0.5-0.5h46c0.276,0,0.5,0.224,0.5,0.5	S74.776,18,74.5,18z">
    </path>
    <path fill="#1f212b"
        d="M74.5,21h-40c-0.276,0-0.5-0.224-0.5-0.5s0.224-0.5,0.5-0.5h40c0.276,0,0.5,0.224,0.5,0.5	S74.776,21,74.5,21z">
    </path>
    <path fill="#1f212b"
        d="M65.5,93c-0.097,0-0.194-0.028-0.277-0.084L62.5,91.101l-2.723,1.815	c-0.153,0.103-0.351,0.112-0.513,0.024C59.102,92.854,59,92.685,59,92.5v-6c0-0.276,0.224-0.5,0.5-0.5s0.5,0.224,0.5,0.5v5.065	l2.223-1.481c0.168-0.111,0.387-0.111,0.555,0L65,91.565V86.5c0-0.276,0.224-0.5,0.5-0.5s0.5,0.224,0.5,0.5v6	c0,0.185-0.102,0.354-0.264,0.44C65.662,92.98,65.581,93,65.5,93z">
    </path>
    <path fill="#1f212b"
        d="M38,50.906c0-1.231,0.474-2.086,1.422-2.567c0.948-0.481,2.323-0.722,4.124-0.722h1.138v-0.496	c0-0.788-0.218-1.473-0.652-2.056c-0.434-0.583-1.086-0.874-1.955-0.874c-0.664,0-1.248,0.118-1.754,0.352	c-0.506,0.235-0.782,0.351-0.83,0.351c-0.221,0-0.399-0.105-0.533-0.316c-0.135-0.212-0.202-0.434-0.202-0.669	c0-0.36,0.359-0.677,1.079-0.95c0.719-0.273,1.481-0.411,2.287-0.411c1.548,0,2.69,0.434,3.425,1.303	c0.735,0.868,1.102,1.952,1.102,3.25v6.009c0,0.204-0.091,0.371-0.273,0.504c-0.182,0.134-0.415,0.2-0.699,0.2	c-0.253,0-0.466-0.065-0.64-0.194c-0.174-0.13-0.261-0.293-0.261-0.492v-0.913C43.703,53.404,42.511,54,41.199,54	c-0.948,0-1.718-0.264-2.311-0.791C38.296,52.681,38,51.914,38,50.906z M39.991,50.692c0,0.586,0.166,1.03,0.497,1.33	c0.332,0.301,0.774,0.452,1.328,0.452c0.663,0,1.307-0.265,1.931-0.796c0.624-0.531,0.936-1.074,0.936-1.629v-1.236h-0.83	c-0.459,0-0.853,0.012-1.185,0.036c-0.332,0.023-0.676,0.071-1.031,0.142c-0.355,0.072-0.648,0.175-0.877,0.309	c-0.229,0.135-0.415,0.317-0.557,0.547C40.062,50.077,39.991,50.359,39.991,50.692z">
    </path>
    <path fill="#1f212b"
        d="M49.376,53.11V36.68c0-0.203,0.091-0.366,0.273-0.492C49.83,36.063,50.063,36,50.348,36	c0.285,0,0.522,0.063,0.711,0.188c0.19,0.126,0.285,0.29,0.285,0.493v7.675c0.284-0.508,0.695-0.935,1.232-1.285	c0.537-0.348,1.161-0.523,1.872-0.523c1.153,0,2.149,0.442,2.986,1.326c0.837,0.883,1.256,1.943,1.256,3.179v2.394	c0,1.189-0.419,2.245-1.256,3.168C56.597,53.539,55.625,54,54.519,54c-0.711,0-1.367-0.182-1.967-0.546	c-0.601-0.364-1.035-0.8-1.304-1.308v0.952c0,0.191-0.091,0.357-0.272,0.499c-0.182,0.144-0.391,0.215-0.628,0.215	c-0.269,0-0.497-0.07-0.687-0.211C49.471,53.461,49.376,53.297,49.376,53.11z M51.344,50.07c0,0.388,0.276,0.843,0.829,1.364	c0.553,0.521,1.177,0.782,1.872,0.782c0.711,0,1.335-0.283,1.872-0.851c0.537-0.568,0.806-1.209,0.806-1.924v-2.38	c0-0.7-0.269-1.329-0.806-1.889c-0.537-0.56-1.169-0.84-1.896-0.84c-0.711,0-1.335,0.254-1.872,0.759	c-0.537,0.505-0.805,1.162-0.805,1.971V50.07z">
    </path>
    <path fill="#1f212b"
        d="M60.657,49.448V47.1c0-1.344,0.399-2.44,1.197-3.285c0.797-0.845,1.971-1.268,3.519-1.268	c0.979,0,1.805,0.173,2.477,0.516c0.671,0.344,1.008,0.713,1.008,1.103c0,0.22-0.083,0.434-0.249,0.646	c-0.166,0.212-0.36,0.316-0.581,0.316c-0.064,0-0.336-0.133-0.818-0.398c-0.482-0.266-1.047-0.399-1.694-0.399	c-0.948,0-1.667,0.242-2.157,0.724c-0.49,0.482-0.735,1.167-0.735,2.052v2.334c0,1.851,0.972,2.776,2.915,2.776	c0.664,0,1.24-0.137,1.73-0.41c0.489-0.273,0.774-0.411,0.853-0.411c0.253,0,0.462,0.102,0.628,0.305	C68.917,51.904,69,52.115,69,52.334c0,0.391-0.348,0.767-1.043,1.126c-0.696,0.36-1.549,0.54-2.56,0.54	c-1.564,0-2.746-0.418-3.543-1.256C61.056,51.908,60.657,50.808,60.657,49.448z">
    </path>
</svg>