<svg width="18" height="1" viewBox="0 0 35 35" fill="none" xmlns="http://www.w3.org/2000/svg">
<path d="M17.5 2.91667C9.45002 2.91667 2.91669 9.45001 2.91669 17.5C2.91669 25.55 9.45002 32.0833 17.5 32.0833C25.55 32.0833 32.0834 25.55 32.0834 17.5C32.0834 9.45001 25.55 2.91667 17.5 2.91667ZM17.5 7.29167C19.9209 7.29167 21.875 9.24584 21.875 11.6667C21.875 14.0875 19.9209 16.0417 17.5 16.0417C15.0792 16.0417 13.125 14.0875 13.125 11.6667C13.125 9.24584 15.0792 7.29167 17.5 7.29167ZM17.5 28C13.8542 28 10.6313 26.1333 8.75002 23.3042C8.79377 20.4021 14.5834 18.8125 17.5 18.8125C20.4021 18.8125 26.2063 20.4021 26.25 23.3042C24.3688 26.1333 21.1459 28 17.5 28Z" fill="#6C63FF"/>
</svg>
